<?xml version="1.0" encoding="utf-8"?>
<!-- Generator: Adobe Illustrator 19.1.0, SVG Export Plug-In . SVG Version: 6.00 Build 0)  -->
<svg version="1.1" id="Layer_1" xmlns="http://www.w3.org/2000/svg" xmlns:xlink="http://www.w3.org/1999/xlink" x="0px" y="0px"
	 viewBox="0 0 768 768" style="enable-background:new 0 0 768 768;" xml:space="preserve">
<style type="text/css">
	.st0{fill:#D2D2D2;}
</style>
<path class="st0" d="M759.726,504H524c-2.209,0-4-1.791-4-4V268c0-2.209,1.791-4,4-4h235.726c4.261,0,7.982-3.215,8.257-7.467
	c0.302-4.659-3.388-8.533-7.983-8.533H524c-2.209,0-4-1.791-4-4V8.274c0-4.261-3.215-7.981-7.467-8.257
	C507.873-0.284,504,3.405,504,8v236c0,2.209-1.791,4-4,4H268c-2.209,0-4-1.791-4-4V8.274c0-4.261-3.215-7.981-7.467-8.257
	C251.873-0.284,248,3.405,248,8v236c0,2.209-1.791,4-4,4H8.274c-4.261,0-7.981,3.215-8.257,7.467C-0.284,260.127,3.405,264,8,264
	h236c2.209,0,4,1.791,4,4v232c0,2.209-1.791,4-4,4H8.274c-4.261,0-7.981,3.215-8.257,7.467C-0.284,516.127,3.405,520,8,520h236
	c2.209,0,4,1.791,4,4v235.726c0,4.261,3.215,7.982,7.467,8.257c4.659,0.302,8.533-3.388,8.533-7.983V524c0-2.209,1.791-4,4-4h232
	c2.209,0,4,1.791,4,4v235.726c0,4.261,3.215,7.982,7.467,8.257c4.659,0.302,8.533-3.388,8.533-7.983V524c0-2.209,1.791-4,4-4h236
	c4.594,0,8.284-3.873,7.983-8.533C767.707,507.215,763.987,504,759.726,504z M264,500V268c0-2.209,1.791-4,4-4h232
	c2.209,0,4,1.791,4,4v232c0,2.209-1.791,4-4,4H268C265.791,504,264,502.209,264,500z"/>
</svg>
