<?xml version="1.0" encoding="utf-8"?>
<!-- Generator: Adobe Illustrator 19.1.0, SVG Export Plug-In . SVG Version: 6.00 Build 0)  -->
<svg version="1.1" id="Layer_1" xmlns="http://www.w3.org/2000/svg" xmlns:xlink="http://www.w3.org/1999/xlink" x="0px" y="0px"
	 viewBox="0 0 192 192" style="enable-background:new 0 0 192 192;" xml:space="preserve">
<style type="text/css">
	.st0{fill:#CC523E;}
</style>
<path class="st0" d="M124.787,90.343l56.249-56.249c6.092-6.092,6.652-16.015,0.854-22.387c-6.191-6.803-16.732-6.99-23.161-0.56
	L102.16,67.716c-3.124,3.124-8.19,3.124-11.314,0L34.597,11.467c-6.092-6.092-16.015-6.652-22.387-0.854
	c-6.803,6.191-6.99,16.732-0.56,23.161l56.568,56.569c3.124,3.124,3.124,8.19,0,11.314L11.97,157.906
	c-6.092,6.092-6.652,16.015-0.854,22.387c6.191,6.803,16.732,6.99,23.161,0.56l56.569-56.569c3.124-3.124,8.19-3.124,11.314,0
	l56.249,56.249c6.092,6.092,16.015,6.652,22.387,0.854c6.803-6.191,6.99-16.732,0.56-23.161l-56.569-56.568
	C121.663,98.533,121.663,93.467,124.787,90.343z"/>
</svg>
